{"glyphs":{"0":{"ha":825,"x_min":71,"x_max":756,"o":"m 414 889 q 493 889 414 889 q 664 772 572 889 q 756 437 756 656 q 664 101 756 218 q 414 -15 572 -15 q 163 100 256 -15 q 71 437 71 215 q 163 774 71 658 q 414 889 256 889 m 642 437 q 642 522 642 437 q 583 698 642 607 q 413 789 525 789 q 243 698 301 789 q 185 437 185 607 q 243 176 185 267 q 413 85 301 85 q 583 176 525 85 q 642 437 642 267 z "},"1":{"ha":460,"x_min":68,"x_max":319,"o":"m 68 806 q 231 876 161 818 l 319 876 l 319 0 l 211 0 l 211 746 q 68 697 142 701 l 68 806 z "},"2":{"ha":806,"x_min":89,"x_max":713,"o":"m 199 101 l 706 101 l 706 0 l 89 0 l 89 129 q 206 356 89 283 q 289 397 243 379 l 461 467 q 594 640 594 519 q 549 749 594 707 q 420 792 503 792 q 285 757 338 792 q 225 653 233 722 l 104 653 q 196 828 111 767 q 413 889 281 889 q 629 817 546 889 q 713 638 713 744 q 658 469 713 532 q 507 369 603 407 l 331 299 q 231 235 264 271 q 199 143 199 200 l 199 101 z "},"3":{"ha":821,"x_min":72,"x_max":735,"o":"m 701 650 q 549 457 701 511 q 683 379 632 433 q 735 240 735 325 q 647 55 735 125 q 417 -15 560 -15 q 173 59 274 -15 q 72 268 72 133 l 186 268 q 252 132 189 179 q 413 85 315 85 q 563 131 510 85 q 617 247 617 178 q 565 359 617 315 q 399 403 514 403 l 299 403 l 299 490 l 367 490 q 525 530 467 490 q 583 636 583 569 q 536 746 583 703 q 411 789 489 789 q 281 762 333 789 q 211 661 229 735 l 97 661 q 193 833 113 776 q 401 889 274 889 q 615 822 528 889 q 701 650 701 754 z "},"4":{"ha":776,"x_min":36,"x_max":746,"o":"m 594 886 l 594 306 l 746 306 l 746 211 l 594 211 l 594 0 l 488 0 l 488 211 l 36 211 l 36 296 l 493 886 l 594 886 m 167 296 l 490 296 l 490 713 l 167 296 z "},"5":{"ha":785,"x_min":90,"x_max":707,"o":"m 593 283 q 378 449 593 449 l 143 449 l 181 874 l 665 874 l 665 774 l 286 774 l 263 522 q 400 535 335 535 q 625 472 543 535 q 707 281 707 408 q 621 69 707 153 q 399 -15 535 -15 q 176 53 263 -15 q 90 243 90 122 l 200 243 q 317 94 200 129 q 396 85 353 85 q 539 141 485 85 q 593 283 593 197 z "},"6":{"ha":796,"x_min":71,"x_max":715,"o":"m 590 653 q 442 789 567 789 q 249 686 317 789 q 182 406 182 583 q 189 283 182 332 q 267 469 197 411 q 447 526 338 526 q 636 449 557 526 q 715 252 715 372 q 633 58 715 132 q 418 -17 551 -17 q 167 108 263 -17 q 71 437 71 233 q 168 765 71 640 q 433 889 265 889 q 624 824 550 889 q 708 653 697 758 l 590 653 m 419 429 q 380 429 419 429 q 288 380 340 429 q 236 254 236 331 q 288 131 236 178 q 418 85 339 85 q 549 131 497 85 q 601 257 601 176 q 549 383 601 338 q 419 429 497 429 z "},"7":{"ha":653,"x_min":33,"x_max":628,"o":"m 628 874 l 628 772 l 228 0 l 81 0 l 500 768 l 33 768 l 33 874 l 628 874 z "},"8":{"ha":854,"x_min":76,"x_max":779,"o":"m 279 442 q 106 657 106 521 q 192 825 106 761 q 420 889 278 889 q 654 821 563 889 q 746 646 746 753 q 698 517 746 574 q 557 446 650 460 l 581 438 q 728 352 676 401 q 779 218 779 303 q 685 49 779 113 q 433 -15 592 -15 q 175 56 274 -15 q 76 233 76 126 q 133 374 76 319 q 279 442 189 428 m 383 401 q 243 347 296 392 q 190 235 190 301 q 257 126 190 168 q 431 85 324 85 q 602 121 539 85 q 665 208 665 157 q 632 291 665 260 q 540 343 599 322 l 383 401 m 221 643 q 251 578 221 606 q 339 529 282 551 l 440 490 q 578 534 524 493 q 632 641 632 575 q 575 748 632 707 q 428 789 518 789 q 279 749 338 789 q 221 643 221 710 z "},"9":{"ha":807,"x_min":92,"x_max":736,"o":"m 392 889 q 526 858 463 889 q 636 771 590 828 q 736 453 736 649 q 547 17 736 113 q 406 -15 482 -15 q 179 63 263 -15 q 96 258 96 140 l 211 258 q 261 132 214 179 q 381 85 308 85 q 497 111 453 85 q 624 468 624 190 q 617 571 624 525 q 535 403 603 458 q 359 347 468 347 q 171 424 250 347 q 92 621 92 501 q 174 815 92 742 q 392 889 256 889 m 519 741 q 493 764 519 741 q 388 788 467 788 q 257 742 308 788 q 206 615 206 696 q 258 489 206 535 q 388 443 310 443 q 519 492 467 443 q 571 618 571 542 q 519 741 571 694 z "}," ":{"ha":331,"x_min":0,"x_max":0,"o":""},"!":{"ha":386,"x_min":114,"x_max":279,"o":"m 138 871 l 253 871 l 240 244 l 151 244 l 138 871 m 195 -12 q 177 -12 195 -12 q 137 10 160 -12 q 114 66 114 33 q 137 122 114 99 q 195 144 160 144 q 255 122 231 144 q 279 66 279 99 q 255 10 279 33 q 195 -12 231 -12 z "},"\"":{"ha":425,"x_min":39,"x_max":386,"o":"m 153 946 l 138 640 l 54 640 l 39 946 l 153 946 m 386 946 l 371 640 l 288 640 l 272 946 l 386 946 z "},"#":{"ha":871,"x_min":74,"x_max":814,"o":"m 528 236 l 314 236 l 294 43 l 192 43 l 211 236 l 74 236 l 81 311 l 219 311 l 246 558 l 106 558 l 114 632 l 253 632 l 274 824 l 376 824 l 356 632 l 569 632 l 590 824 l 692 824 l 671 632 l 814 632 l 806 558 l 664 558 l 638 311 l 781 311 l 772 236 l 629 236 l 610 43 l 507 43 l 528 236 m 322 311 l 535 311 l 561 558 l 349 558 l 322 311 z "},"$":{"ha":878,"x_min":96,"x_max":782,"o":"m 579 458 q 728 373 675 426 q 782 227 782 319 q 703 65 782 135 q 482 -14 624 -6 l 482 -126 l 396 -126 l 396 -12 q 180 70 264 -1 q 96 263 96 142 l 203 263 q 396 88 203 106 l 396 414 l 351 431 q 177 517 236 467 q 118 660 118 567 q 188 815 118 753 q 396 886 258 876 l 396 990 l 482 990 l 482 885 q 668 815 603 875 q 749 661 733 756 l 640 661 q 482 789 617 772 l 482 490 l 579 458 m 660 232 q 532 375 660 335 l 482 392 l 482 86 q 615 136 569 93 q 660 232 660 179 m 396 790 q 276 744 317 782 q 236 656 236 707 q 264 577 236 606 q 354 529 292 549 l 396 514 l 396 790 z "},"%":{"ha":1008,"x_min":85,"x_max":926,"o":"m 261 889 q 298 889 261 889 q 388 836 335 889 q 440 689 440 783 q 388 542 440 594 q 261 490 336 490 q 135 543 186 490 q 85 689 85 596 q 136 835 85 782 q 261 889 188 889 m 351 689 q 326 785 351 754 q 261 815 301 815 q 196 785 221 815 q 171 689 171 754 q 196 594 171 624 q 261 565 221 565 q 326 594 301 565 q 351 689 351 624 m 742 874 l 856 874 l 268 0 l 156 0 l 742 874 m 747 383 q 874 331 822 383 q 926 184 926 279 q 874 37 926 89 q 747 -15 822 -15 q 622 38 672 -15 q 571 184 571 90 q 622 331 571 278 q 747 383 672 383 m 747 310 q 682 279 707 310 q 657 183 657 249 q 682 89 657 118 q 747 60 707 60 q 813 89 788 60 q 838 183 838 118 q 813 279 838 249 q 747 310 788 310 z "},"&":{"ha":1272,"x_min":124,"x_max":1207,"o":"m 1007 486 q 847 178 944 296 l 907 126 q 956 92 935 103 q 1012 81 978 81 q 1073 106 1046 81 q 1104 194 1100 132 l 1207 194 q 1155 40 1201 94 q 1019 -15 1108 -15 q 919 7 965 -15 q 819 78 874 29 l 783 108 q 467 -15 644 -15 q 222 58 321 -15 q 124 233 124 131 q 190 388 124 336 q 383 461 256 440 l 364 479 q 257 683 257 572 q 330 829 257 771 q 523 888 403 888 q 715 829 643 888 q 786 688 786 771 q 732 546 786 606 q 556 433 678 486 l 775 240 q 931 528 869 354 l 1007 486 m 451 400 q 294 349 344 386 q 243 244 243 311 q 301 130 243 178 q 478 82 358 82 q 710 174 597 82 l 451 400 m 667 678 q 628 761 667 728 q 522 794 590 794 q 415 756 453 794 q 376 674 376 718 q 394 594 376 629 q 454 524 413 560 l 492 489 q 658 628 636 556 q 667 678 667 651 z "},"'":{"ha":189,"x_min":38,"x_max":151,"o":"m 151 940 l 136 635 l 53 635 l 38 940 l 151 940 z "},"(":{"ha":494,"x_min":101,"x_max":456,"o":"m 456 954 q 215 426 215 711 q 456 -101 215 142 l 376 -157 q 171 117 240 -33 q 101 427 101 267 q 171 737 101 588 q 376 1011 240 886 l 456 954 z "},")":{"ha":494,"x_min":39,"x_max":393,"o":"m 39 -101 q 279 426 279 142 q 39 954 279 711 l 118 1011 q 324 737 254 886 q 393 427 393 588 q 324 117 393 267 q 118 -157 254 -33 l 39 -101 z "},"*":{"ha":572,"x_min":78,"x_max":497,"o":"m 240 717 l 78 772 l 111 847 l 258 772 l 244 950 l 331 950 l 317 772 l 464 847 l 497 772 l 336 717 l 461 593 l 400 539 l 289 683 l 178 539 l 115 593 l 240 717 z "},"+":{"ha":732,"x_min":25,"x_max":707,"o":"m 421 682 l 421 388 l 707 388 l 707 294 l 421 294 l 421 0 l 311 0 l 311 294 l 25 294 l 25 388 l 311 388 l 311 682 l 421 682 z "},",":{"ha":292,"x_min":42,"x_max":247,"o":"m 146 -7 q 93 14 114 -4 q 72 63 72 32 q 94 114 72 93 q 155 135 115 135 q 221 103 194 135 q 247 25 247 72 q 217 -72 247 -22 q 124 -151 186 -121 l 42 -111 q 146 -7 128 -69 z "},"-":{"ha":485,"x_min":53,"x_max":431,"o":"m 53 451 l 431 451 l 431 357 l 53 357 l 53 451 z "},".":{"ha":249,"x_min":42,"x_max":206,"o":"m 123 -12 q 105 -12 123 -12 q 65 10 88 -12 q 42 66 42 33 q 65 122 42 99 q 123 144 88 144 q 182 122 158 144 q 206 66 206 99 q 182 10 206 33 q 123 -12 158 -12 z "},"/":{"ha":600,"x_min":79,"x_max":539,"o":"m 428 1015 l 539 1015 l 189 -101 l 79 -101 l 428 1015 z "},":":{"ha":321,"x_min":78,"x_max":242,"o":"m 159 32 q 141 32 159 32 q 101 55 124 32 q 78 110 78 78 q 101 166 78 143 q 159 189 124 189 q 218 166 194 189 q 242 110 242 143 q 218 55 242 78 q 159 32 194 32 m 159 457 q 141 457 159 457 q 101 480 124 457 q 78 535 78 503 q 101 591 78 568 q 159 614 124 614 q 218 591 194 614 q 242 535 242 568 q 218 480 242 503 q 159 457 194 457 z "},";":{"ha":364,"x_min":79,"x_max":285,"o":"m 183 -7 q 131 14 151 -4 q 110 63 110 32 q 131 114 110 93 q 192 135 153 135 q 258 103 232 135 q 285 25 285 72 q 254 -72 285 -22 q 161 -151 224 -121 l 79 -111 q 183 -7 165 -69 m 195 457 q 177 457 195 457 q 137 480 160 457 q 114 535 114 503 q 137 591 114 568 q 195 614 160 614 q 254 591 231 614 q 278 535 278 568 q 254 480 278 503 q 195 457 231 457 z "},"<":{"ha":631,"x_min":56,"x_max":567,"o":"m 567 711 l 167 424 l 567 140 l 494 56 l 56 376 l 56 472 l 494 794 l 567 711 z "},"=":{"ha":678,"x_min":110,"x_max":568,"o":"m 568 257 l 568 163 l 110 163 l 110 257 l 568 257 m 568 524 l 568 428 l 110 428 l 110 524 l 568 524 z "},">":{"ha":631,"x_min":65,"x_max":575,"o":"m 136 794 l 575 472 l 575 376 l 136 56 l 65 140 l 463 424 l 65 711 l 136 794 z "},"?":{"ha":693,"x_min":42,"x_max":629,"o":"m 344 789 q 158 661 182 789 l 42 661 q 126 826 51 764 q 337 889 201 889 q 551 822 472 889 q 629 660 629 756 q 593 540 629 588 q 476 447 557 492 q 418 413 442 428 q 381 378 394 397 q 354 278 354 343 l 354 224 l 246 224 l 246 286 q 275 420 246 374 q 381 508 304 467 q 483 581 457 550 q 510 665 510 613 q 466 753 510 718 q 344 789 422 789 m 301 142 q 361 118 338 142 q 385 62 385 94 q 361 7 385 29 q 301 -15 338 -15 q 243 7 265 -15 q 221 62 221 29 q 243 118 221 94 q 301 142 265 142 z "},"@":{"ha":1306,"x_min":93,"x_max":1242,"o":"m 799 401 q 717 518 799 518 q 569 451 635 518 q 504 281 504 383 q 542 167 504 207 q 638 126 581 126 q 731 159 694 126 q 799 254 767 192 l 799 401 m 890 192 q 944 121 890 121 q 1005 140 972 121 q 1064 194 1038 158 q 1128 411 1128 279 q 1015 683 1128 576 q 710 790 903 790 q 503 751 596 790 q 344 647 410 713 q 206 301 206 508 q 353 -34 206 94 q 757 -162 500 -162 l 757 -251 q 275 -92 461 -251 q 140 87 188 -17 q 93 314 93 190 q 139 543 93 438 q 267 726 185 649 q 462 846 349 803 q 701 889 575 889 q 926 851 828 889 q 1094 749 1025 814 q 1203 597 1164 685 q 1242 417 1242 510 q 1152 143 1242 247 q 943 39 1063 39 q 847 64 883 39 q 804 136 811 89 l 800 158 q 733 72 775 106 q 636 39 692 39 q 467 107 533 39 q 401 279 401 175 q 493 510 401 417 q 711 604 585 604 q 842 554 794 604 q 890 403 890 504 l 890 192 z "},"A":{"ha":799,"x_min":36,"x_max":763,"o":"m 336 874 l 469 874 l 763 0 l 649 0 l 574 222 l 226 222 l 151 0 l 36 0 l 336 874 m 256 308 l 546 308 l 401 739 l 256 308 z "},"B":{"ha":864,"x_min":140,"x_max":768,"o":"m 140 874 l 467 874 q 678 808 604 874 q 753 644 753 743 q 712 514 753 569 q 588 439 671 458 q 719 368 669 425 q 768 239 768 311 q 611 21 768 78 q 468 0 553 0 l 140 0 l 140 874 m 465 96 q 608 136 565 96 q 651 243 651 176 q 604 349 651 310 q 465 389 557 389 l 250 389 l 250 96 l 465 96 m 250 483 l 464 483 q 592 523 544 483 q 640 632 640 563 q 594 740 640 701 q 464 779 547 779 l 250 779 l 250 483 z "},"C":{"ha":851,"x_min":71,"x_max":786,"o":"m 443 889 q 669 819 583 889 q 786 636 754 749 l 668 613 q 581 742 640 694 q 443 790 522 790 q 261 699 333 790 q 189 444 189 607 q 253 182 189 281 q 443 83 318 83 q 608 138 547 83 q 668 283 668 193 l 786 283 q 692 65 786 146 q 435 -15 599 -15 q 172 110 272 -15 q 71 444 71 235 q 175 772 71 654 q 443 889 279 889 z "},"D":{"ha":918,"x_min":139,"x_max":831,"o":"m 396 874 q 712 755 593 874 q 831 437 831 636 q 712 119 831 238 q 396 0 593 0 l 139 0 l 139 874 l 396 874 m 249 96 l 396 96 q 628 192 542 96 q 714 438 714 289 q 627 681 714 586 q 396 776 540 776 l 249 776 l 249 96 z "},"E":{"ha":781,"x_min":139,"x_max":676,"o":"m 139 874 l 676 874 l 676 779 l 249 779 l 249 486 l 651 486 l 651 393 l 249 393 l 249 96 l 676 96 l 676 0 l 139 0 l 139 874 z "},"F":{"ha":728,"x_min":140,"x_max":671,"o":"m 140 874 l 671 874 l 671 779 l 250 779 l 250 489 l 642 489 l 642 394 l 250 394 l 250 0 l 140 0 l 140 874 z "},"G":{"ha":896,"x_min":71,"x_max":793,"o":"m 681 150 q 454 -15 622 -15 q 178 107 286 -15 q 71 436 71 229 q 188 765 71 643 q 481 888 306 888 q 660 846 583 888 q 793 713 738 804 l 688 676 q 476 789 597 789 q 272 690 356 789 q 188 434 188 592 q 260 181 188 276 q 454 85 332 85 q 615 151 554 85 q 676 349 676 218 l 676 351 l 457 360 l 457 432 l 783 432 l 783 0 l 694 0 l 681 150 z "},"H":{"ha":929,"x_min":140,"x_max":789,"o":"m 250 874 l 250 489 l 679 489 l 679 874 l 789 874 l 789 0 l 679 0 l 679 394 l 250 394 l 250 0 l 140 0 l 140 874 l 250 874 z "},"I":{"ha":389,"x_min":140,"x_max":250,"o":"m 140 874 l 250 874 l 250 0 l 140 0 l 140 874 z "},"J":{"ha":561,"x_min":11,"x_max":450,"o":"m 450 253 q 385 47 450 110 q 221 -15 321 -15 q 11 43 121 -15 l 11 157 q 194 90 108 90 q 310 132 279 90 q 340 253 340 174 l 340 874 l 450 874 l 450 253 z "},"K":{"ha":846,"x_min":140,"x_max":817,"o":"m 251 874 l 251 469 l 642 874 l 793 874 l 411 481 l 817 0 l 675 0 l 338 404 l 251 315 l 251 0 l 140 0 l 140 874 l 251 874 z "},"L":{"ha":650,"x_min":140,"x_max":639,"o":"m 250 96 l 639 96 l 639 0 l 140 0 l 140 874 l 250 874 l 250 96 z "},"M":{"ha":1178,"x_min":140,"x_max":1038,"o":"m 297 874 l 592 282 l 883 874 l 1038 874 l 1038 0 l 928 0 l 928 718 l 628 110 l 554 110 l 250 728 l 250 0 l 140 0 l 140 874 l 297 874 z "},"N":{"ha":951,"x_min":138,"x_max":811,"o":"m 268 874 l 701 172 l 701 874 l 811 874 l 811 0 l 689 0 l 249 711 l 249 0 l 138 0 l 138 874 l 268 874 z "},"O":{"ha":897,"x_min":71,"x_max":828,"o":"m 449 889 q 723 773 618 889 q 828 435 828 657 q 724 99 828 214 q 449 -15 619 -15 q 174 101 278 -15 q 71 436 71 217 q 174 773 71 657 q 449 889 278 889 m 449 790 q 256 699 326 790 q 185 435 185 607 q 256 174 185 263 q 449 85 326 85 q 642 174 571 85 q 714 435 714 263 q 642 699 714 607 q 449 790 571 790 z "},"P":{"ha":769,"x_min":138,"x_max":715,"o":"m 419 874 q 640 801 564 874 q 715 604 715 728 q 640 409 715 481 q 419 338 564 338 l 247 338 l 247 0 l 138 0 l 138 874 l 419 874 m 419 432 q 556 478 510 432 q 603 603 603 524 q 556 731 603 683 q 419 779 510 779 l 247 779 l 247 432 l 419 432 z "},"Q":{"ha":906,"x_min":71,"x_max":828,"o":"m 828 -206 q 711 -232 772 -232 q 508 -108 593 -232 l 443 -15 q 173 103 275 -12 q 71 438 71 218 q 174 773 71 657 q 449 889 278 889 q 723 773 618 889 q 828 436 828 657 q 754 141 828 253 q 554 -3 681 29 l 597 -64 q 693 -121 638 -118 q 828 -86 753 -121 l 828 -206 m 449 790 q 256 699 326 790 q 185 435 185 607 q 256 174 185 263 q 449 85 326 85 q 642 174 571 85 q 714 435 714 263 q 642 699 714 607 q 449 790 571 790 z "},"R":{"ha":851,"x_min":140,"x_max":771,"o":"m 749 624 q 749 569 749 624 q 691 449 749 515 q 521 363 633 382 l 771 0 l 629 0 l 403 357 l 250 357 l 250 0 l 140 0 l 140 874 l 444 874 q 670 803 592 874 q 749 624 749 732 m 436 433 q 585 481 535 433 q 636 608 636 529 q 587 733 636 686 q 444 779 538 779 l 250 779 l 250 433 l 436 433 z "},"S":{"ha":840,"x_min":96,"x_max":744,"o":"m 606 661 q 418 789 582 789 q 283 751 331 789 q 236 659 236 713 q 265 578 236 606 q 360 529 294 550 l 542 467 q 690 379 635 435 q 744 223 744 324 q 658 53 744 122 q 428 -15 572 -15 q 191 58 283 -15 q 96 263 99 131 l 203 263 q 263 131 203 176 q 419 85 324 85 q 569 127 514 85 q 625 227 625 169 q 591 318 625 285 q 490 374 557 351 l 336 431 q 172 517 228 467 q 117 663 117 567 q 194 824 117 760 q 413 889 272 889 q 627 827 553 889 q 713 661 701 765 l 606 661 z "},"T":{"ha":696,"x_min":8,"x_max":688,"o":"m 8 874 l 688 874 l 688 779 l 403 779 l 403 0 l 293 0 l 293 779 l 8 779 l 8 874 z "},"U":{"ha":908,"x_min":121,"x_max":785,"o":"m 231 874 l 231 315 q 292 139 231 193 q 453 85 353 85 q 614 139 553 85 q 675 315 675 193 l 675 874 l 785 874 l 785 315 q 694 68 785 151 q 452 -15 604 -15 q 210 68 300 -15 q 121 315 121 151 l 121 874 l 231 874 z "},"V":{"ha":782,"x_min":25,"x_max":757,"o":"m 140 874 l 390 139 l 642 874 l 757 874 l 447 0 l 333 0 l 25 874 l 140 874 z "},"W":{"ha":1243,"x_min":19,"x_max":1222,"o":"m 142 874 l 354 147 l 569 783 l 643 783 l 857 147 l 1101 874 l 1222 874 l 914 0 l 799 0 l 608 560 l 411 0 l 296 0 l 19 874 l 142 874 z "},"X":{"ha":892,"x_min":65,"x_max":824,"o":"m 824 0 l 688 0 l 435 349 l 200 0 l 67 0 l 375 433 l 65 874 l 197 874 l 447 517 l 678 874 l 810 874 l 508 435 l 824 0 z "},"Y":{"ha":763,"x_min":14,"x_max":749,"o":"m 144 874 l 379 472 l 619 874 l 749 874 l 435 358 l 435 0 l 324 0 l 324 358 l 14 874 l 144 874 z "},"Z":{"ha":822,"x_min":101,"x_max":743,"o":"m 101 99 l 606 769 l 101 774 l 101 874 l 743 874 l 743 775 l 239 104 l 743 100 l 743 0 l 101 0 l 101 99 z "},"[":{"ha":440,"x_min":140,"x_max":415,"o":"m 140 1015 l 415 1015 l 415 918 l 250 918 l 250 -44 l 415 -44 l 415 -142 l 140 -142 l 140 1015 z "},"\\":{"ha":600,"x_min":63,"x_max":522,"o":"m 63 1015 l 172 1015 l 522 -101 l 411 -101 l 63 1015 z "},"]":{"ha":396,"x_min":-19,"x_max":256,"o":"m 256 -142 l -19 -142 l -19 -44 l 146 -44 l 146 918 l -19 918 l -19 1015 l 256 1015 l 256 -142 z "},"^":{"ha":622,"x_min":29,"x_max":603,"o":"m 29 340 l 274 814 l 358 814 l 603 340 l 481 340 l 315 682 l 153 340 l 29 340 z "},"_":{"ha":1008,"x_min":76,"x_max":932,"o":"m 76 -78 l 932 -78 l 932 -172 l 76 -172 l 76 -78 z "},"`":{"ha":438,"x_min":33,"x_max":406,"o":"m 79 1194 l 406 1010 l 374 940 l 33 1097 l 79 1194 z "},"a":{"ha":778,"x_min":97,"x_max":660,"o":"m 551 431 q 514 560 551 521 q 405 599 476 599 q 290 570 333 599 q 246 481 246 542 l 125 481 q 289 669 125 633 q 397 681 339 681 q 590 618 521 681 q 660 428 660 556 l 660 0 l 565 0 l 554 111 q 333 -15 493 -15 q 162 44 226 -15 q 97 193 97 104 q 169 332 97 282 q 347 382 240 382 q 551 346 454 382 l 551 431 m 551 276 q 379 304 453 304 q 260 278 306 304 q 214 194 214 251 q 356 69 214 69 q 494 127 436 69 q 551 276 551 185 z "},"b":{"ha":811,"x_min":140,"x_max":742,"o":"m 250 565 q 444 681 317 681 q 657 585 572 681 q 742 334 742 490 q 656 81 742 178 q 446 -15 569 -15 q 326 18 379 -15 q 242 117 272 51 l 217 0 l 140 0 l 140 946 l 250 946 l 250 565 m 438 583 q 398 583 438 583 q 306 533 358 583 q 250 392 253 482 l 250 283 q 305 137 250 192 q 438 82 360 82 q 572 151 515 82 q 629 333 629 219 q 573 515 629 447 q 438 583 517 583 z "},"c":{"ha":715,"x_min":69,"x_max":640,"o":"m 362 681 q 420 681 362 681 q 549 620 479 681 q 639 469 618 560 l 528 460 q 469 551 510 518 q 381 583 429 583 q 237 517 292 583 q 182 335 182 450 q 235 151 182 221 q 369 82 289 82 q 488 119 449 82 q 528 224 528 156 l 640 224 q 566 51 640 117 q 372 -15 492 -15 q 158 81 246 -15 q 69 335 69 176 q 157 588 69 494 q 362 681 244 681 z "},"d":{"ha":825,"x_min":83,"x_max":683,"o":"m 575 565 l 575 946 l 683 946 l 683 0 l 594 0 l 581 111 q 496 17 549 49 q 381 -15 443 -15 q 169 82 254 -15 q 83 335 83 179 q 167 586 83 492 q 380 681 251 681 q 575 565 508 681 m 386 583 q 346 583 386 583 q 251 515 306 583 q 196 333 196 447 q 251 151 196 219 q 385 82 307 82 q 517 134 463 82 q 575 274 572 186 l 575 382 q 521 529 575 475 q 386 583 467 583 z "},"e":{"ha":715,"x_min":69,"x_max":654,"o":"m 369 74 q 526 194 507 74 l 639 194 q 551 40 624 94 q 369 -15 478 -15 q 153 80 236 -15 q 69 333 69 175 q 153 586 69 492 q 377 681 238 681 q 585 572 517 681 q 633 308 654 464 l 179 308 q 229 140 179 206 q 369 74 279 74 m 450 576 q 372 593 418 593 q 238 535 288 593 q 181 392 189 478 l 535 392 q 450 576 535 531 z "},"f":{"ha":476,"x_min":68,"x_max":482,"o":"m 463 853 q 390 871 417 871 q 314 847 342 871 q 286 764 286 824 l 286 664 l 424 664 l 424 589 l 286 589 l 286 0 l 178 0 l 178 589 l 68 589 l 68 664 l 178 664 l 178 765 q 232 910 178 864 q 357 957 286 957 q 482 939 428 957 l 463 853 z "},"g":{"ha":785,"x_min":39,"x_max":763,"o":"m 168 21 q 85 144 85 61 q 117 220 85 188 q 199 264 150 253 q 124 439 124 331 q 201 614 124 547 q 383 681 278 681 q 563 631 489 681 q 622 749 572 704 q 751 793 671 793 l 742 685 q 614 582 619 685 q 663 439 663 522 q 585 263 663 332 q 393 194 508 194 q 253 226 314 194 q 203 201 225 221 q 181 146 181 181 q 303 72 181 72 l 561 72 q 708 33 654 72 q 763 -78 763 -7 q 656 -262 763 -183 q 388 -342 550 -342 q 132 -281 225 -342 q 39 -129 39 -221 q 74 -32 39 -69 q 168 21 110 6 m 147 -125 q 205 -216 147 -178 q 380 -254 263 -254 q 576 -203 497 -254 q 654 -85 654 -153 q 631 -30 654 -53 q 561 -7 608 -7 l 293 -7 q 185 -41 222 -10 q 147 -125 147 -72 m 556 440 q 556 475 556 440 q 513 556 556 511 q 394 601 469 601 q 275 556 318 601 q 232 439 232 511 q 276 320 232 367 q 394 274 319 274 q 513 321 469 274 q 556 440 556 368 z "},"h":{"ha":839,"x_min":140,"x_max":721,"o":"m 250 542 q 471 681 317 681 q 655 603 589 681 q 721 390 721 525 l 721 0 l 613 0 l 613 390 q 567 535 613 486 q 438 583 522 583 q 301 512 353 583 q 250 314 250 440 l 250 0 l 140 0 l 140 946 l 250 946 l 250 542 z "},"i":{"ha":415,"x_min":131,"x_max":275,"o":"m 147 665 l 257 665 l 257 0 l 147 0 l 147 665 m 201 821 q 185 821 201 821 q 149 840 168 821 q 131 890 131 858 q 149 940 131 921 q 201 958 168 958 q 255 940 235 958 q 275 890 275 921 q 255 840 275 858 q 201 821 235 821 z "},"j":{"ha":436,"x_min":-119,"x_max":296,"o":"m 222 821 q 170 840 189 821 q 151 890 151 858 q 170 940 151 921 q 222 958 189 958 q 276 940 256 958 q 296 890 296 921 q 276 840 296 858 q 222 821 256 821 m 46 -246 q 168 -93 168 -246 l 168 667 l 278 667 l 278 -93 q 153 -328 278 -283 q 67 -342 114 -342 q -119 -290 -19 -342 l -114 -194 q 46 -246 -26 -246 z "},"k":{"ha":783,"x_min":140,"x_max":739,"o":"m 339 351 l 250 279 l 250 0 l 140 0 l 140 946 l 250 946 l 250 396 l 571 664 l 724 664 l 418 415 l 739 0 l 604 0 l 339 351 z "},"l":{"ha":389,"x_min":140,"x_max":250,"o":"m 140 946 l 250 946 l 250 0 l 140 0 l 140 946 z "},"m":{"ha":1299,"x_min":139,"x_max":1181,"o":"m 246 536 q 469 681 311 681 q 614 638 556 681 q 699 521 672 596 q 931 681 761 681 q 1115 603 1050 681 q 1181 390 1181 525 l 1181 0 l 1072 0 l 1072 390 q 1027 535 1072 486 q 897 583 982 583 q 766 514 813 583 q 719 322 719 444 l 719 0 l 611 0 l 611 390 q 566 535 611 486 q 438 583 521 583 q 303 515 354 583 q 249 326 251 447 l 249 0 l 139 0 l 139 664 l 233 664 l 246 536 z "},"n":{"ha":838,"x_min":139,"x_max":719,"o":"m 246 536 q 469 681 311 681 q 653 603 588 681 q 719 390 719 525 l 719 0 l 611 0 l 611 390 q 566 535 611 486 q 438 583 521 583 q 303 515 354 583 q 249 326 251 447 l 249 0 l 139 0 l 139 664 l 233 664 l 246 536 z "},"o":{"ha":758,"x_min":69,"x_max":689,"o":"m 379 681 q 603 590 518 681 q 689 332 689 500 q 603 75 689 165 q 379 -15 518 -15 q 155 75 240 -15 q 69 332 69 165 q 155 590 69 500 q 379 681 240 681 m 578 333 q 578 392 578 333 q 528 519 578 451 q 381 586 478 586 q 233 519 285 586 q 182 333 182 451 q 231 147 182 214 q 376 79 279 79 q 525 147 472 79 q 578 333 578 214 z "},"p":{"ha":825,"x_min":140,"x_max":742,"o":"m 243 563 q 438 681 308 681 q 655 585 568 681 q 742 332 742 489 q 654 80 742 175 q 439 -15 567 -15 q 250 81 311 -15 l 250 -326 l 140 -326 l 140 664 l 231 664 l 243 563 m 433 82 q 472 82 433 82 q 570 149 511 82 q 629 331 629 215 q 573 515 629 447 q 436 583 517 583 q 304 533 356 583 q 250 396 253 482 l 250 269 q 303 132 250 182 q 433 82 356 82 z "},"q":{"ha":813,"x_min":71,"x_max":772,"o":"m 367 681 q 572 556 508 681 l 596 664 l 671 664 l 671 -112 q 687 -203 671 -181 q 723 -237 703 -226 q 772 -257 743 -247 l 736 -342 q 602 -262 642 -317 q 563 -106 563 -208 l 563 106 q 376 -15 506 -15 q 158 80 246 -15 q 71 332 71 175 q 158 585 71 489 q 367 681 244 681 m 376 583 q 336 583 376 583 q 240 515 296 583 q 183 331 183 447 q 243 149 183 215 q 382 82 303 82 q 544 183 496 82 q 563 260 561 215 l 563 386 q 510 531 563 478 q 376 583 457 583 z "},"r":{"ha":529,"x_min":139,"x_max":501,"o":"m 411 571 q 249 324 254 571 l 249 0 l 139 0 l 139 665 l 249 665 l 249 538 q 425 676 299 676 q 501 664 465 676 l 496 557 q 411 571 454 571 z "},"s":{"ha":731,"x_min":83,"x_max":646,"o":"m 106 501 q 176 632 106 583 q 365 681 246 681 q 552 631 485 681 q 622 504 619 581 l 515 504 q 363 594 503 594 q 258 564 294 594 q 221 498 221 533 q 249 438 221 463 q 338 396 276 414 l 471 351 q 601 284 556 325 q 646 172 646 243 q 572 42 646 100 q 367 -15 499 -15 q 161 44 235 -15 q 83 196 88 103 l 189 196 q 240 102 192 133 q 360 71 288 71 q 479 101 432 71 q 526 174 526 132 q 499 239 526 217 q 408 278 471 261 l 279 321 q 106 501 106 372 z "},"t":{"ha":522,"x_min":47,"x_max":488,"o":"m 488 19 q 269 -4 368 -36 q 169 89 199 18 q 154 172 154 124 l 154 581 l 47 581 l 47 664 l 154 664 l 154 849 l 263 849 l 263 664 l 471 664 l 471 581 l 263 581 l 263 174 q 357 72 263 72 q 472 97 408 72 l 488 19 z "},"u":{"ha":842,"x_min":121,"x_max":701,"o":"m 592 132 q 371 -12 524 -12 q 190 50 258 -12 q 121 243 121 113 l 121 665 l 231 665 l 231 251 q 386 83 231 83 q 533 153 476 83 q 592 331 589 222 l 592 665 l 701 665 l 701 0 l 592 0 l 592 132 z "},"v":{"ha":699,"x_min":25,"x_max":674,"o":"m 149 664 l 349 115 l 550 664 l 674 664 l 410 0 l 289 0 l 25 664 l 149 664 z "},"w":{"ha":1007,"x_min":25,"x_max":978,"o":"m 139 664 l 300 135 l 458 632 l 550 632 l 707 129 l 869 664 l 978 664 l 761 0 l 654 0 l 501 465 l 351 0 l 246 0 l 25 664 l 139 664 z "},"x":{"ha":711,"x_min":36,"x_max":675,"o":"m 674 0 l 540 0 l 350 251 l 169 0 l 36 0 l 288 332 l 36 665 l 169 665 l 360 415 l 542 665 l 675 665 l 421 332 l 674 0 z "},"y":{"ha":672,"x_min":7,"x_max":638,"o":"m 7 -193 q 150 -246 75 -246 q 246 -190 206 -246 q 299 -68 275 -150 l 318 0 l 46 664 l 168 664 l 369 135 l 526 664 l 638 664 l 389 -132 q 305 -287 357 -233 q 173 -342 253 -342 q 7 -293 93 -342 l 7 -193 z "},"z":{"ha":660,"x_min":74,"x_max":588,"o":"m 74 89 l 464 575 l 74 575 l 74 664 l 588 664 l 588 575 l 203 89 l 588 89 l 588 0 l 74 0 l 74 89 z "},"{":{"ha":485,"x_min":104,"x_max":474,"o":"m 214 421 q 286 264 286 386 l 286 135 q 328 -37 286 22 q 474 -96 371 -96 l 474 -192 q 178 133 178 -192 l 178 261 q 166 346 178 321 q 128 371 154 371 l 104 371 l 104 476 l 128 476 q 166 501 154 476 q 178 586 178 525 l 178 713 q 336 1014 178 946 q 474 1039 392 1039 l 474 943 q 328 884 371 943 q 286 711 286 825 l 286 583 q 214 426 286 464 l 214 421 z "},"|":{"ha":389,"x_min":140,"x_max":250,"o":"m 140 1042 l 250 1042 l 250 -169 l 140 -169 l 140 1042 z "},"}":{"ha":485,"x_min":11,"x_max":381,"o":"m 271 426 q 199 583 199 464 l 199 711 q 156 884 199 825 q 11 943 114 943 l 11 1039 q 307 713 307 1039 l 307 586 q 319 501 307 525 q 357 476 331 476 l 381 476 l 381 371 l 357 371 q 319 346 331 371 q 307 261 307 321 l 307 133 q 149 -167 307 -100 q 11 -192 92 -192 l 11 -96 q 156 -37 114 -96 q 199 135 199 22 l 199 264 q 271 421 199 386 l 271 426 z "},"~":{"ha":715,"x_min":74,"x_max":642,"o":"m 219 392 q 135 310 168 392 l 74 342 q 222 496 119 496 q 363 458 269 496 q 492 419 456 419 q 582 499 547 419 l 642 461 q 485 314 593 314 q 386 339 453 314 q 300 372 319 364 q 219 392 246 392 z "},"£":{"ha":785,"x_min":28,"x_max":735,"o":"m 556 681 q 414 789 533 789 q 316 744 356 789 q 276 600 276 700 l 276 449 l 529 449 l 529 371 l 276 371 l 276 226 q 225 96 276 132 l 479 96 q 578 124 547 96 q 618 214 610 153 l 735 214 q 668 53 726 107 q 479 0 610 0 l 28 0 l 28 96 l 67 96 q 144 126 119 96 q 168 221 168 157 l 168 371 l 42 371 l 42 449 l 168 449 l 168 600 q 233 813 168 738 q 424 889 297 889 q 585 836 522 889 q 663 681 647 783 l 556 681 z "},"¨":{"ha":449,"x_min":33,"x_max":414,"o":"m 106 1082 q 53 1102 74 1082 q 33 1151 33 1122 q 53 1201 33 1181 q 106 1221 74 1221 q 159 1201 138 1221 q 181 1151 181 1181 q 159 1102 181 1122 q 106 1082 138 1082 m 340 1082 q 324 1082 340 1082 q 288 1102 308 1082 q 267 1151 267 1122 q 288 1201 267 1181 q 340 1221 308 1221 q 392 1201 371 1221 q 414 1151 414 1181 q 392 1102 414 1122 q 340 1082 371 1082 z "},"´":{"ha":438,"x_min":32,"x_max":403,"o":"m 403 1097 l 64 940 l 32 1010 l 358 1194 l 403 1097 z "},"À":{"ha":799,"x_min":36,"x_max":763,"o":"m 336 874 l 469 874 l 763 0 l 649 0 l 574 222 l 226 222 l 151 0 l 36 0 l 336 874 m 256 308 l 546 308 l 401 739 l 256 308 m 264 1194 l 590 1010 l 558 940 l 218 1097 l 264 1194 z "},"Á":{"ha":799,"x_min":36,"x_max":763,"o":"m 336 874 l 469 874 l 763 0 l 649 0 l 574 222 l 226 222 l 151 0 l 36 0 l 336 874 m 256 308 l 546 308 l 401 739 l 256 308 m 588 1097 l 249 940 l 217 1010 l 543 1194 l 588 1097 z "},"Â":{"ha":799,"x_min":36,"x_max":763,"o":"m 336 874 l 469 874 l 763 0 l 649 0 l 574 222 l 226 222 l 151 0 l 36 0 l 336 874 m 256 308 l 546 308 l 401 739 l 256 308 m 651 994 l 582 940 l 403 1090 l 222 940 l 153 994 l 403 1211 l 651 994 z "},"Ã":{"ha":799,"x_min":36,"x_max":763,"o":"m 336 874 l 469 874 l 763 0 l 649 0 l 574 222 l 226 222 l 151 0 l 36 0 l 336 874 m 256 308 l 546 308 l 401 739 l 256 308 m 307 1069 q 228 999 263 1069 l 183 1025 q 232 1133 200 1096 q 300 1169 264 1169 q 383 1146 336 1169 q 466 1106 447 1114 q 503 1097 485 1097 q 540 1115 521 1097 q 574 1169 560 1132 l 622 1138 q 573 1035 607 1071 q 510 999 539 999 q 458 1007 482 999 q 393 1037 435 1015 q 337 1064 351 1058 q 307 1069 322 1069 z "},"Ä":{"ha":799,"x_min":36,"x_max":763,"o":"m 336 874 l 469 874 l 763 0 l 649 0 l 574 222 l 226 222 l 151 0 l 36 0 l 336 874 m 256 308 l 546 308 l 401 739 l 256 308 m 314 1021 q 262 1041 282 1021 q 242 1090 242 1061 q 262 1140 242 1119 q 314 1160 282 1160 q 367 1140 346 1160 q 389 1090 389 1119 q 367 1041 389 1061 q 314 1021 346 1021 m 548 1021 q 532 1021 548 1021 q 496 1041 517 1021 q 475 1090 475 1061 q 496 1140 475 1119 q 548 1160 517 1160 q 601 1140 579 1160 q 622 1090 622 1119 q 601 1041 622 1061 q 548 1021 579 1021 z "},"È":{"ha":783,"x_min":139,"x_max":676,"o":"m 139 874 l 676 874 l 676 779 l 249 779 l 249 486 l 651 486 l 651 393 l 249 393 l 249 96 l 676 96 l 676 0 l 139 0 l 139 874 m 269 1194 l 596 1010 l 564 940 l 224 1097 l 269 1194 z "},"É":{"ha":783,"x_min":139,"x_max":676,"o":"m 139 0 l 676 0 l 676 96 l 249 96 l 249 393 l 651 393 l 651 486 l 249 486 l 249 779 l 676 779 l 676 874 l 139 874 l 139 0 m 593 1097 l 254 940 l 222 1010 l 549 1194 l 593 1097 z "},"Ê":{"ha":783,"x_min":146,"x_max":683,"o":"m 146 874 l 683 874 l 683 779 l 256 779 l 256 486 l 658 486 l 658 393 l 256 393 l 256 96 l 683 96 l 683 0 l 146 0 l 146 874 m 665 994 l 596 940 l 417 1090 l 236 940 l 167 994 l 417 1211 l 665 994 z "},"Ë":{"ha":783,"x_min":139,"x_max":676,"o":"m 139 874 l 676 874 l 676 779 l 249 779 l 249 486 l 651 486 l 651 393 l 249 393 l 249 96 l 676 96 l 676 0 l 139 0 l 139 874 m 292 1021 q 240 1041 260 1021 q 219 1090 219 1061 q 240 1140 219 1119 q 292 1160 260 1160 q 345 1140 324 1160 q 367 1090 367 1119 q 345 1041 367 1061 q 292 1021 324 1021 m 526 1021 q 510 1021 526 1021 q 474 1041 494 1021 q 453 1090 453 1061 q 474 1140 453 1119 q 526 1160 494 1160 q 578 1140 557 1160 q 600 1090 600 1119 q 578 1041 600 1061 q 526 1021 557 1021 z "},"Ì":{"ha":389,"x_min":10,"x_max":382,"o":"m 140 874 l 250 874 l 250 0 l 140 0 l 140 874 m 56 1194 l 382 1010 l 350 940 l 10 1097 l 56 1194 z "},"Í":{"ha":389,"x_min":8,"x_max":379,"o":"m 140 0 l 250 0 l 250 874 l 140 874 l 140 0 m 379 1097 l 40 940 l 8 1010 l 335 1194 l 379 1097 z "},"Î":{"ha":389,"x_min":-54,"x_max":444,"o":"m 140 874 l 250 874 l 250 0 l 140 0 l 140 874 m 444 994 l 375 940 l 196 1090 l 15 940 l -54 994 l 196 1211 l 444 994 z "},"Ï":{"ha":389,"x_min":6,"x_max":386,"o":"m 140 874 l 250 874 l 250 0 l 140 0 l 140 874 m 78 1021 q 26 1041 46 1021 q 6 1090 6 1061 q 26 1140 6 1119 q 78 1160 46 1160 q 131 1140 110 1160 q 153 1090 153 1119 q 131 1041 153 1061 q 78 1021 110 1021 m 312 1021 q 296 1021 312 1021 q 260 1041 281 1021 q 239 1090 239 1061 q 260 1140 239 1119 q 312 1160 281 1160 q 365 1140 343 1160 q 386 1090 386 1119 q 365 1041 386 1061 q 312 1021 343 1021 z "},"Ñ":{"ha":953,"x_min":138,"x_max":811,"o":"m 138 874 l 138 0 l 249 0 l 249 711 l 689 0 l 811 0 l 811 874 l 701 874 l 701 172 l 268 874 l 138 874 m 381 1069 q 301 999 336 1069 l 257 1025 q 306 1133 274 1096 q 374 1169 338 1169 q 456 1146 410 1169 q 540 1106 521 1114 q 576 1097 558 1097 q 614 1115 594 1097 q 647 1169 633 1132 l 696 1138 q 647 1035 681 1071 q 584 999 613 999 q 532 1007 556 999 q 467 1037 508 1015 q 410 1064 425 1058 q 381 1069 396 1069 z "},"Ò":{"ha":897,"x_min":71,"x_max":828,"o":"m 449 889 q 723 773 618 889 q 828 435 828 657 q 724 99 828 214 q 449 -15 619 -15 q 174 101 278 -15 q 71 436 71 217 q 174 773 71 657 q 449 889 278 889 m 449 790 q 256 699 326 790 q 185 435 185 607 q 256 174 185 263 q 449 85 326 85 q 642 174 571 85 q 714 435 714 263 q 642 699 714 607 q 449 790 571 790 m 310 1194 l 636 1010 l 604 940 l 264 1097 l 310 1194 z "},"Ó":{"ha":897,"x_min":71,"x_max":828,"o":"m 449 889 q 174 773 278 889 q 71 436 71 657 q 174 101 71 217 q 449 -15 278 -15 q 724 99 619 -15 q 828 435 828 214 q 723 773 828 657 q 449 889 618 889 m 449 790 q 642 699 571 790 q 714 435 714 607 q 642 174 714 263 q 449 85 571 85 q 256 174 326 85 q 185 435 185 263 q 256 699 185 607 q 449 790 326 790 m 633 1097 l 294 940 l 263 1010 l 589 1194 l 633 1097 z "},"Ô":{"ha":897,"x_min":71,"x_max":828,"o":"m 449 889 q 723 773 618 889 q 828 435 828 657 q 724 99 828 214 q 449 -15 619 -15 q 174 101 278 -15 q 71 436 71 217 q 174 773 71 657 q 449 889 278 889 m 449 790 q 256 699 326 790 q 185 435 185 607 q 256 174 185 263 q 449 85 326 85 q 642 174 571 85 q 714 435 714 263 q 642 699 714 607 q 449 790 571 790 m 697 994 l 628 940 l 449 1090 l 268 940 l 199 994 l 449 1211 l 697 994 z "},"Õ":{"ha":897,"x_min":71,"x_max":828,"o":"m 449 889 q 174 773 278 889 q 71 436 71 657 q 174 101 71 217 q 449 -15 278 -15 q 724 99 619 -15 q 828 435 828 214 q 723 773 828 657 q 449 889 618 889 m 449 790 q 642 699 571 790 q 714 435 714 607 q 642 174 714 263 q 449 85 571 85 q 256 174 326 85 q 185 435 185 263 q 256 699 185 607 q 449 790 326 790 m 353 1069 q 274 999 308 1069 l 229 1025 q 278 1133 246 1096 q 346 1169 310 1169 q 428 1146 382 1169 q 512 1106 493 1114 q 549 1097 531 1097 q 586 1115 567 1097 q 619 1169 606 1132 l 668 1138 q 619 1035 653 1071 q 556 999 585 999 q 504 1007 528 999 q 439 1037 481 1015 q 383 1064 397 1058 q 353 1069 368 1069 z "},"Ö":{"ha":897,"x_min":71,"x_max":828,"o":"m 449 889 q 723 773 618 889 q 828 435 828 657 q 724 99 828 214 q 449 -15 619 -15 q 174 101 278 -15 q 71 436 71 217 q 174 773 71 657 q 449 889 278 889 m 449 790 q 256 699 326 790 q 185 435 185 607 q 256 174 185 263 q 449 85 326 85 q 642 174 571 85 q 714 435 714 263 q 642 699 714 607 q 449 790 571 790 m 331 1021 q 278 1041 299 1021 q 258 1090 258 1061 q 278 1140 258 1119 q 331 1160 299 1160 q 384 1140 363 1160 q 406 1090 406 1119 q 384 1041 406 1061 q 331 1021 363 1021 m 565 1021 q 549 1021 565 1021 q 513 1041 533 1021 q 492 1090 492 1061 q 513 1140 492 1119 q 565 1160 533 1160 q 617 1140 596 1160 q 639 1090 639 1119 q 617 1041 639 1061 q 565 1021 596 1021 z "},"Ù":{"ha":908,"x_min":121,"x_max":785,"o":"m 231 874 l 231 315 q 292 139 231 193 q 453 85 353 85 q 614 139 553 85 q 675 315 675 193 l 675 874 l 785 874 l 785 315 q 694 68 785 151 q 452 -15 604 -15 q 210 68 300 -15 q 121 315 121 151 l 121 874 l 231 874 m 314 1194 l 640 1010 l 608 940 l 268 1097 l 314 1194 z "},"Ú":{"ha":908,"x_min":121,"x_max":785,"o":"m 121 874 l 121 315 q 210 68 121 151 q 452 -15 300 -15 q 694 68 604 -15 q 785 315 785 151 l 785 874 l 675 874 l 675 315 q 614 139 675 193 q 453 85 553 85 q 292 139 353 85 q 231 315 231 193 l 231 874 l 121 874 m 638 1097 l 299 940 l 267 1010 l 593 1194 l 638 1097 z "},"Û":{"ha":908,"x_min":121,"x_max":785,"o":"m 231 874 l 231 315 q 292 139 231 193 q 453 85 353 85 q 614 139 553 85 q 675 315 675 193 l 675 874 l 785 874 l 785 315 q 694 68 785 151 q 452 -15 604 -15 q 210 68 300 -15 q 121 315 121 151 l 121 874 l 231 874 m 701 994 l 632 940 l 453 1090 l 272 940 l 203 994 l 453 1211 l 701 994 z "},"Ü":{"ha":908,"x_min":121,"x_max":785,"o":"m 231 874 l 231 315 q 292 139 231 193 q 453 85 353 85 q 614 139 553 85 q 675 315 675 193 l 675 874 l 785 874 l 785 315 q 694 68 785 151 q 452 -15 604 -15 q 210 68 300 -15 q 121 315 121 151 l 121 874 l 231 874 m 335 1021 q 283 1041 303 1021 q 263 1090 263 1061 q 283 1140 263 1119 q 335 1160 303 1160 q 388 1140 367 1160 q 410 1090 410 1119 q 388 1041 410 1061 q 335 1021 367 1021 m 569 1021 q 553 1021 569 1021 q 517 1041 538 1021 q 496 1090 496 1061 q 517 1140 496 1119 q 569 1160 538 1160 q 622 1140 600 1160 q 643 1090 643 1119 q 622 1041 643 1061 q 569 1021 600 1021 z "},"à":{"ha":765,"x_min":83,"x_max":646,"o":"m 538 431 q 500 560 538 521 q 391 599 463 599 q 276 570 319 599 q 232 481 232 542 l 111 481 q 275 669 111 633 q 383 681 325 681 q 576 618 507 681 q 646 428 646 556 l 646 0 l 551 0 l 540 111 q 319 -15 479 -15 q 148 44 213 -15 q 83 193 83 104 q 155 332 83 282 q 333 382 226 382 q 538 346 440 382 l 538 431 m 538 276 q 365 304 439 304 q 246 278 292 304 q 200 194 200 251 q 342 69 200 69 q 480 127 422 69 q 538 276 538 185 m 253 1015 l 579 831 l 547 761 l 207 918 l 253 1015 z "},"á":{"ha":765,"x_min":83,"x_max":646,"o":"m 538 431 q 500 560 538 521 q 391 599 463 599 q 276 570 319 599 q 232 481 232 542 l 111 481 q 275 669 111 633 q 383 681 325 681 q 576 618 507 681 q 646 428 646 556 l 646 0 l 551 0 l 540 111 q 319 -15 479 -15 q 148 44 213 -15 q 83 193 83 104 q 155 332 83 282 q 333 382 226 382 q 538 346 440 382 l 538 431 m 538 276 q 365 304 439 304 q 246 278 292 304 q 200 194 200 251 q 342 69 200 69 q 478 125 421 69 q 538 268 535 181 l 538 276 m 576 918 l 238 761 l 206 831 l 532 1015 l 576 918 z "},"â":{"ha":765,"x_min":83,"x_max":646,"o":"m 538 431 q 500 560 538 521 q 391 599 463 599 q 276 570 319 599 q 232 481 232 542 l 111 481 q 275 669 111 633 q 383 681 325 681 q 576 618 507 681 q 646 428 646 556 l 646 0 l 551 0 l 540 111 q 319 -15 479 -15 q 148 44 213 -15 q 83 193 83 104 q 155 332 83 282 q 333 382 226 382 q 538 346 440 382 l 538 431 m 538 276 q 365 304 439 304 q 246 278 292 304 q 200 194 200 251 q 342 69 200 69 q 480 127 422 69 q 538 276 538 185 m 640 815 l 571 761 l 392 911 l 211 761 l 142 815 l 392 1032 l 640 815 z "},"ã":{"ha":765,"x_min":83,"x_max":646,"o":"m 538 431 q 500 560 538 521 q 391 599 463 599 q 276 570 319 599 q 232 481 232 542 l 111 481 q 275 669 111 633 q 383 681 325 681 q 576 618 507 681 q 646 428 646 556 l 646 0 l 551 0 l 540 111 q 319 -15 479 -15 q 148 44 213 -15 q 83 193 83 104 q 155 332 83 282 q 333 382 226 382 q 538 346 440 382 l 538 431 m 538 276 q 365 304 439 304 q 246 278 292 304 q 200 194 200 251 q 342 69 200 69 q 478 125 421 69 q 538 268 535 181 l 538 276 m 296 890 q 217 819 251 890 l 172 846 q 221 953 189 917 q 289 990 253 990 q 372 967 325 990 q 455 926 436 935 q 492 918 474 918 q 529 935 510 918 q 563 990 549 953 l 611 958 q 562 856 596 892 q 499 819 528 819 q 447 828 471 819 q 382 858 424 836 q 326 885 340 879 q 296 890 311 890 z "},"ä":{"ha":765,"x_min":83,"x_max":646,"o":"m 538 431 q 500 560 538 521 q 391 599 463 599 q 276 570 319 599 q 232 481 232 542 l 111 481 q 275 669 111 633 q 383 681 325 681 q 576 618 507 681 q 646 428 646 556 l 646 0 l 551 0 l 540 111 q 319 -15 479 -15 q 148 44 213 -15 q 83 193 83 104 q 155 332 83 282 q 333 382 226 382 q 538 346 440 382 l 538 431 m 538 276 q 365 304 439 304 q 246 278 292 304 q 200 194 200 251 q 342 69 200 69 q 480 127 422 69 q 538 276 538 185 m 274 840 q 222 860 242 840 q 201 910 201 881 q 222 959 201 939 q 274 979 242 979 q 327 959 306 979 q 349 910 349 939 q 327 860 349 881 q 274 840 306 840 m 508 840 q 492 840 508 840 q 456 860 476 840 q 435 910 435 881 q 456 959 435 939 q 508 979 476 979 q 560 959 539 979 q 582 910 582 939 q 560 860 582 881 q 508 840 539 840 z "},"è":{"ha":714,"x_min":71,"x_max":656,"o":"m 371 74 q 528 194 508 74 l 640 194 q 552 40 625 94 q 371 -15 479 -15 q 154 80 238 -15 q 71 333 71 175 q 155 586 71 492 q 378 681 239 681 q 587 572 518 681 q 635 308 656 464 l 181 308 q 231 140 181 206 q 371 74 281 74 m 450 576 q 375 593 419 593 q 240 535 289 593 q 182 392 190 478 l 536 392 q 450 576 536 531 m 221 1022 l 547 838 l 515 768 l 175 925 l 221 1022 z "},"é":{"ha":714,"x_min":71,"x_max":656,"o":"m 528 194 q 371 74 508 74 q 231 140 281 74 q 181 308 181 206 l 635 308 q 587 572 656 464 q 378 681 518 681 q 155 586 239 681 q 71 333 71 492 q 154 80 71 175 q 371 -15 238 -15 q 552 40 479 -15 q 640 194 625 94 l 528 194 m 374 593 q 417 593 374 593 q 498 535 460 593 q 536 392 536 478 l 182 392 q 240 535 190 478 q 374 593 289 593 m 544 925 l 206 768 l 174 838 l 500 1022 l 544 925 z "},"ê":{"ha":714,"x_min":75,"x_max":660,"o":"m 375 74 q 532 194 513 74 l 644 194 q 556 40 629 94 q 375 -15 483 -15 q 158 80 242 -15 q 75 333 75 175 q 159 586 75 492 q 383 681 243 681 q 591 572 522 681 q 639 308 660 464 l 185 308 q 235 140 185 206 q 375 74 285 74 m 456 576 q 378 593 424 593 q 244 535 293 593 q 186 392 194 478 l 540 392 q 456 576 540 531 m 614 822 l 544 768 l 365 918 l 185 768 l 115 822 l 365 1039 l 614 822 z "},"ë":{"ha":714,"x_min":71,"x_max":656,"o":"m 371 74 q 528 194 508 74 l 640 194 q 552 40 625 94 q 371 -15 479 -15 q 154 80 238 -15 q 71 333 71 175 q 155 586 71 492 q 378 681 239 681 q 587 572 518 681 q 635 308 656 464 l 181 308 q 231 140 181 206 q 371 74 281 74 m 450 576 q 375 593 419 593 q 240 535 289 593 q 182 392 190 478 l 536 392 q 450 576 536 531 m 243 840 q 191 860 211 840 q 171 910 171 881 q 191 959 171 939 q 243 979 211 979 q 297 959 275 979 q 318 910 318 939 q 297 860 318 881 q 243 840 275 840 m 477 840 q 461 840 477 840 q 425 860 446 840 q 404 910 404 881 q 425 959 404 939 q 477 979 446 979 q 530 959 508 979 q 551 910 551 939 q 530 860 551 881 q 477 840 508 840 z "},"ì":{"ha":415,"x_min":17,"x_max":389,"o":"m 147 665 l 257 665 l 257 0 l 147 0 l 147 665 m 63 1015 l 389 831 l 357 761 l 17 918 l 63 1015 z "},"í":{"ha":415,"x_min":15,"x_max":386,"o":"m 147 0 l 257 0 l 257 665 l 147 665 l 147 0 m 386 918 l 47 761 l 15 831 l 342 1015 l 386 918 z "},"î":{"ha":415,"x_min":-47,"x_max":451,"o":"m 147 665 l 257 665 l 257 0 l 147 0 l 147 665 m 451 815 l 382 761 l 203 911 l 22 761 l -47 815 l 203 1032 l 451 815 z "},"ï":{"ha":415,"x_min":13,"x_max":393,"o":"m 147 665 l 257 665 l 257 0 l 147 0 l 147 665 m 85 840 q 33 860 53 840 q 13 910 13 881 q 33 959 13 939 q 85 979 53 979 q 138 959 117 979 q 160 910 160 939 q 138 860 160 881 q 85 840 117 840 m 319 840 q 303 840 319 840 q 267 860 288 840 q 246 910 246 881 q 267 959 246 939 q 319 979 288 979 q 372 959 350 979 q 393 910 393 939 q 372 860 393 881 q 319 840 350 840 z "},"ñ":{"ha":839,"x_min":140,"x_max":721,"o":"m 471 681 q 247 536 313 681 l 235 664 l 140 664 l 140 0 l 250 0 l 250 326 q 304 515 253 447 q 439 583 356 583 q 567 535 522 583 q 613 390 613 486 l 613 0 l 721 0 l 721 390 q 655 603 721 525 q 471 681 589 681 m 329 890 q 250 819 285 890 l 206 846 q 254 953 222 917 q 322 990 286 990 q 406 967 358 990 q 488 926 469 935 q 525 918 507 918 q 563 935 543 918 q 596 990 582 953 l 644 958 q 595 856 629 892 q 533 819 561 819 q 481 828 504 819 q 415 858 457 836 q 359 885 374 879 q 329 890 344 890 z "},"ò":{"ha":760,"x_min":71,"x_max":690,"o":"m 381 681 q 605 590 519 681 q 690 332 690 500 q 605 75 690 165 q 381 -15 519 -15 q 156 75 242 -15 q 71 332 71 165 q 156 590 71 500 q 381 681 242 681 m 579 333 q 579 392 579 333 q 529 519 579 451 q 383 586 479 586 q 235 519 286 586 q 183 333 183 451 q 232 147 183 214 q 377 79 281 79 q 526 147 474 79 q 579 333 579 214 m 242 1015 l 568 831 l 536 761 l 196 918 l 242 1015 z "},"ó":{"ha":760,"x_min":71,"x_max":690,"o":"m 381 681 q 156 590 242 681 q 71 332 71 500 q 156 75 71 165 q 381 -15 242 -15 q 605 75 519 -15 q 690 332 690 165 q 605 590 690 500 q 381 681 519 681 m 183 333 q 183 392 183 333 q 235 519 183 451 q 383 586 286 586 q 529 519 479 586 q 579 333 579 451 q 526 147 579 214 q 377 79 474 79 q 232 147 281 79 q 183 333 183 214 m 565 918 l 226 761 l 194 831 l 521 1015 l 565 918 z "},"ô":{"ha":760,"x_min":71,"x_max":690,"o":"m 381 681 q 605 590 519 681 q 690 332 690 500 q 605 75 690 165 q 381 -15 519 -15 q 156 75 242 -15 q 71 332 71 165 q 156 590 71 500 q 381 681 242 681 m 579 333 q 579 392 579 333 q 529 519 579 451 q 383 586 479 586 q 235 519 286 586 q 183 333 183 451 q 232 147 183 214 q 377 79 281 79 q 526 147 474 79 q 579 333 579 214 m 629 815 l 560 761 l 381 911 l 200 761 l 131 815 l 381 1032 l 629 815 z "},"õ":{"ha":760,"x_min":71,"x_max":690,"o":"m 381 681 q 156 590 242 681 q 71 332 71 500 q 156 75 71 165 q 381 -15 242 -15 q 605 75 519 -15 q 690 332 690 165 q 605 590 690 500 q 381 681 519 681 m 183 333 q 183 392 183 333 q 235 519 183 451 q 383 586 286 586 q 529 519 479 586 q 579 333 579 451 q 526 147 579 214 q 377 79 474 79 q 232 147 281 79 q 183 333 183 214 m 286 890 q 207 819 242 890 l 163 846 q 211 953 179 917 q 279 990 243 990 q 361 967 315 990 q 445 926 426 935 q 482 918 464 918 q 519 935 500 918 q 553 990 539 953 l 601 958 q 552 856 586 892 q 490 819 518 819 q 438 828 461 819 q 372 858 414 836 q 316 885 331 879 q 286 890 301 890 z "},"ö":{"ha":760,"x_min":71,"x_max":690,"o":"m 381 681 q 605 590 519 681 q 690 332 690 500 q 605 75 690 165 q 381 -15 519 -15 q 156 75 242 -15 q 71 332 71 165 q 156 590 71 500 q 381 681 242 681 m 579 333 q 579 392 579 333 q 529 519 579 451 q 383 586 479 586 q 235 519 286 586 q 183 333 183 451 q 232 147 183 214 q 377 79 281 79 q 526 147 474 79 q 579 333 579 214 m 264 840 q 212 860 232 840 q 192 910 192 881 q 212 959 192 939 q 264 979 232 979 q 317 959 296 979 q 339 910 339 939 q 317 860 339 881 q 264 840 296 840 m 498 840 q 482 840 498 840 q 446 860 467 840 q 425 910 425 881 q 446 959 425 939 q 498 979 467 979 q 551 959 529 979 q 572 910 572 939 q 551 860 572 881 q 498 840 529 840 z "},"ù":{"ha":842,"x_min":121,"x_max":701,"o":"m 592 132 q 371 -12 524 -12 q 190 50 258 -12 q 121 243 121 113 l 121 665 l 231 665 l 231 251 q 386 83 231 83 q 533 153 476 83 q 592 331 589 222 l 592 665 l 701 665 l 701 0 l 592 0 l 592 132 m 278 1068 l 604 883 l 572 814 l 232 971 l 278 1068 z "},"ú":{"ha":842,"x_min":121,"x_max":701,"o":"m 371 -12 q 592 132 524 -12 l 592 0 l 701 0 l 701 665 l 592 665 l 592 342 q 535 155 592 226 q 386 83 478 83 q 231 251 231 83 l 231 665 l 121 665 l 121 243 q 190 50 121 113 q 371 -12 258 -12 m 601 971 l 263 814 l 231 883 l 557 1068 l 601 971 z "},"û":{"ha":842,"x_min":121,"x_max":701,"o":"m 592 132 q 371 -12 524 -12 q 190 50 258 -12 q 121 243 121 113 l 121 665 l 231 665 l 231 251 q 386 83 231 83 q 533 153 476 83 q 592 331 589 222 l 592 665 l 701 665 l 701 0 l 592 0 l 592 132 m 667 868 l 597 814 l 418 964 l 238 814 l 168 868 l 418 1085 l 667 868 z "},"ü":{"ha":842,"x_min":121,"x_max":701,"o":"m 592 132 q 371 -12 524 -12 q 190 50 258 -12 q 121 243 121 113 l 121 665 l 231 665 l 231 251 q 386 83 231 83 q 533 153 476 83 q 592 331 589 222 l 592 665 l 701 665 l 701 0 l 592 0 l 592 132 m 300 840 q 248 860 268 840 q 228 910 228 881 q 248 959 228 939 q 300 979 268 979 q 353 959 332 979 q 375 910 375 939 q 353 860 375 881 q 300 840 332 840 m 534 840 q 518 840 534 840 q 482 860 503 840 q 461 910 461 881 q 482 959 461 939 q 534 979 503 979 q 587 959 565 979 q 608 910 608 939 q 587 860 608 881 q 534 840 565 840 z "},"ı":{"ha":389,"x_min":140,"x_max":250,"o":"m 140 665 l 250 665 l 250 0 l 140 0 l 140 665 z "},"ʼ":{"ha":256,"x_min":50,"x_max":256,"o":"m 154 726 q 101 747 122 729 q 81 796 81 765 q 102 847 81 826 q 163 868 124 868 q 229 837 203 868 q 256 758 256 806 q 225 662 256 711 q 132 582 194 613 l 50 622 q 154 726 136 664 z "},"ˆ":{"ha":565,"x_min":33,"x_max":532,"o":"m 532 994 l 463 940 l 283 1090 l 103 940 l 33 994 l 283 1211 l 532 994 z "},"˜":{"ha":508,"x_min":32,"x_max":471,"o":"m 156 1069 q 76 999 111 1069 l 32 1025 q 81 1133 49 1096 q 149 1169 113 1169 q 231 1146 185 1169 q 315 1106 296 1114 q 351 1097 333 1097 q 389 1115 369 1097 q 422 1169 408 1132 l 471 1138 q 422 1035 456 1071 q 359 999 388 999 q 307 1007 331 999 q 242 1037 283 1015 q 185 1064 200 1058 q 156 1069 171 1069 z "},"–":{"ha":658,"x_min":76,"x_max":582,"o":"m 76 451 l 582 451 l 582 357 l 76 357 l 76 451 z "},"—":{"ha":1008,"x_min":76,"x_max":932,"o":"m 76 451 l 932 451 l 932 357 l 76 357 l 76 451 z "},"‘":{"ha":297,"x_min":50,"x_max":256,"o":"m 225 654 q 203 602 225 624 q 143 581 182 581 q 77 613 104 581 q 50 692 50 644 q 83 790 50 740 q 178 869 115 839 l 256 829 q 151 724 169 785 q 204 703 183 721 q 225 654 225 685 z "},"’":{"ha":297,"x_min":21,"x_max":225,"o":"m 50 797 q 72 849 50 828 q 134 869 94 869 q 199 839 174 869 q 225 760 225 808 q 192 662 225 711 q 99 581 160 613 l 21 622 q 125 728 107 667 q 72 749 93 731 q 50 797 50 767 z "},"₹":{"ha":807,"x_min":128,"x_max":706,"o":"m 128 874 l 706 874 l 706 806 l 451 806 q 568 663 547 756 l 706 663 l 706 596 l 575 596 q 410 375 565 436 q 278 347 354 354 l 658 0 l 503 0 l 128 344 l 128 411 l 213 411 q 392 464 333 411 q 454 596 450 517 l 128 596 l 128 663 l 449 663 q 376 766 433 726 q 213 806 318 806 l 128 806 l 128 874 z "},"−":{"ha":678,"x_min":110,"x_max":568,"o":"m 568 451 l 568 358 l 110 358 l 110 451 l 568 451 z "}}}
